HIERARCHY
ROOT Hips
{
    OFFSET 0.000000 0.000000 0.000000
    CHANNELS 6 Xposition Yposition Zposition Zrotation Yrotation Xrotation
    JOINT Chest
    {
        OFFSET 0.000000 1.634758 -0.000000
        CHANNELS 3 Zrotation Yrotation Xrotation
        JOINT Chest2
        {
            OFFSET 0.000000 2.197341 0.000000
            CHANNELS 3 Zrotation Yrotation Xrotation
            JOINT Neck
            {
                OFFSET 0.000000 0.961544 0.000000
                CHANNELS 3 Zrotation Yrotation Xrotation
                JOINT Head
                {
                    OFFSET 0.000000 0.632542 -0.032565
                    CHANNELS 3 Zrotation Yrotation Xrotation
                    End Site
                    {
                        OFFSET -0.000001 0.439502 2.922845
                    }
                }
            }
            JOINT LeftCollar
            {
                OFFSET 0.167536 0.778237 -0.168280
                CHANNELS 3 Zrotation Yrotation Xrotation
                JOINT LeftShoulder
                {
                    OFFSET 0.831514 -0.002900 0.006458
                    CHANNELS 3 Zrotation Yrotation Xrotation
                    JOINT LeftElbow
                    {
                        OFFSET 2.272872 -0.026639 0.059314
                        CHANNELS 3 Zrotation Yrotation Xrotation
                        JOINT LeftWrist
                        {
                            OFFSET 2.081982 -0.024402 0.054333
                            CHANNELS 3 Zrotation Yrotation Xrotation
                            JOINT LeftHandThumb1
                            {
                                OFFSET 0.218903 -0.128645 0.283837
                                CHANNELS 3 Zrotation Yrotation Xrotation
                                JOINT LeftHandThumb2
                                {
                                    OFFSET 0.137157 -0.025101 0.077902
                                    CHANNELS 3 Zrotation Yrotation Xrotation
                                    JOINT LeftHandThumb3
                                    {
                                        OFFSET 0.144677 -0.110837 0.017973
                                        CHANNELS 3 Zrotation Yrotation Xrotation
                                        End Site
                                        {
                                            OFFSET 0.238629 -0.118167 0.030483
                                        }
                                    }
                                }
                            }
                            JOINT LeftHandFore1
                            {
                                OFFSET 0.767340 -0.016076 0.196678
                                CHANNELS 3 Zrotation Yrotation Xrotation
                                JOINT LeftHandFore2
                                {
                                    OFFSET 0.209404 -0.053324 0.017376
                                    CHANNELS 3 Zrotation Yrotation Xrotation
                                    JOINT LeftHandFore3
                                    {
                                        OFFSET 0.112814 -0.062483 0.011475
                                        CHANNELS 3 Zrotation Yrotation Xrotation
                                        End Site
                                        {
                                            OFFSET 0.141688 -0.130714 0.014314
                                        }
                                    }
                                }
                            }
                            JOINT LeftHandMiddle1
                            {
                                OFFSET 0.709887 -0.008320 0.018526
                                CHANNELS 3 Zrotation Yrotation Xrotation
                                JOINT LeftHandMiddle2
                                {
                                    OFFSET 0.233999 -0.070943 0.016591
                                    CHANNELS 3 Zrotation Yrotation Xrotation
                                    JOINT LeftHandMiddle3
                                    {
                                        OFFSET 0.117692 -0.086130 0.010647
                                        CHANNELS 3 Zrotation Yrotation Xrotation
                                        End Site
                                        {
                                            OFFSET 0.132859 -0.194135 0.017044
                                        }
                                    }
                                }
                            }
                            JOINT LeftHandRing1
                            {
                                OFFSET 0.743817 -0.005823 -0.153668
                                CHANNELS 3 Zrotation Yrotation Xrotation
                                JOINT LeftHandRing2
                                {
                                    OFFSET 0.336058 -0.108613 0.001361
                                    CHANNELS 3 Zrotation Yrotation Xrotation
                                    JOINT LeftHandRing3
                                    {
                                        OFFSET 0.089069 -0.103024 0.007631
                                        CHANNELS 3 Zrotation Yrotation Xrotation
                                        End Site
                                        {
                                            OFFSET 0.049848 -0.109061 0.006372
                                        }
                                    }
                                }
                            }
                            JOINT LeftHandLittle1
                            {
                                OFFSET 0.689408 -0.053302 -0.308304
                                CHANNELS 3 Zrotation Yrotation Xrotation
                                JOINT LeftHandLittle2
                                {
                                    OFFSET 0.193658 -0.023245 -0.003183
                                    CHANNELS 3 Zrotation Yrotation Xrotation
                                    JOINT LeftHandLittle3
                                    {
                                        OFFSET 0.097112 -0.070948 0.005653
                                        CHANNELS 3 Zrotation Yrotation Xrotation
                                        End Site
                                        {
                                            OFFSET 0.065828 -0.175021 0.036372
                                        }
                                    }
                                }
                            }
                        }
                    }
                }
            }
            JOINT RightCollar
            {
                OFFSET -0.167536 0.778237 -0.168280
                CHANNELS 3 Zrotation Yrotation Xrotation
                JOINT RightShoulder
                {
                    OFFSET -0.831514 -0.002900 0.006457
                    CHANNELS 3 Zrotation Yrotation Xrotation
                    JOINT RightElbow
                    {
                        OFFSET -2.272872 -0.026639 0.059313
                        CHANNELS 3 Zrotation Yrotation Xrotation
                        JOINT RightWrist
                        {
                            OFFSET -2.081982 -0.024402 0.054331
                            CHANNELS 3 Zrotation Yrotation Xrotation
                            JOINT RightHandThumb1
                            {
                                OFFSET -0.218911 -0.128571 0.283837
                                CHANNELS 3 Zrotation Yrotation Xrotation
                                JOINT RightHandThumb2
                                {
                                    OFFSET -0.137157 -0.025101 0.077902
                                    CHANNELS 3 Zrotation Yrotation Xrotation
                                    JOINT RightHandThumb3
                                    {
                                        OFFSET -0.164479 -0.078518 -0.017914
                                        CHANNELS 3 Zrotation Yrotation Xrotation
                                        End Site
                                        {
                                            OFFSET -0.238613 -0.118888 0.027679
                                        }
                                    }
                                }
                            }
                            JOINT RightHandFore1
                            {
                                OFFSET -0.767344 -0.015991 0.196679
                                CHANNELS 3 Zrotation Yrotation Xrotation
                                JOINT RightHandFore2
                                {
                                    OFFSET -0.153453 -0.151627 -0.021408
                                    CHANNELS 3 Zrotation Yrotation Xrotation
                                    JOINT RightHandFore3
                                    {
                                        OFFSET -0.034088 -0.124697 0.007132
                                        CHANNELS 3 Zrotation Yrotation Xrotation
                                        End Site
                                        {
                                            OFFSET 0.039478 -0.185651 0.036632
                                        }
                                    }
                                }
                            }
                            JOINT RightHandMiddle1
                            {
                                OFFSET -0.709887 -0.008302 0.018525
                                CHANNELS 3 Zrotation Yrotation Xrotation
                                JOINT RightHandMiddle2
                                {
                                    OFFSET -0.112772 -0.217303 0.011128
                                    CHANNELS 3 Zrotation Yrotation Xrotation
                                    JOINT RightHandMiddle3
                                    {
                                        OFFSET 0.130084 -0.065885 -0.011041
                                        CHANNELS 3 Zrotation Yrotation Xrotation
                                        End Site
                                        {
                                            OFFSET 0.211884 -0.101951 -0.018479
                                        }
                                    }
                                }
                            }
                            JOINT RightHandRing1
                            {
                                OFFSET -0.743819 -0.005785 -0.153669
                                CHANNELS 3 Zrotation Yrotation Xrotation
                                JOINT RightHandRing2
                                {
                                    OFFSET -0.057836 -0.345177 0.047345
                                    CHANNELS 3 Zrotation Yrotation Xrotation
                                    JOINT RightHandRing3
                                    {
                                        OFFSET 0.133317 -0.022566 -0.017958
                                        CHANNELS 3 Zrotation Yrotation Xrotation
                                        End Site
                                        {
                                            OFFSET 0.118311 -0.013137 -0.015816
                                        }
                                    }
                                }
                            }
                            JOINT RightHandLittle1
                            {
                                OFFSET -0.689403 -0.053298 -0.308303
                                CHANNELS 3 Zrotation Yrotation Xrotation
                                JOINT RightHandLittle2
                                {
                                    OFFSET -0.002101 -0.194256 0.017767
                                    CHANNELS 3 Zrotation Yrotation Xrotation
                                    JOINT RightHandLittle3
                                    {
                                        OFFSET 0.105220 -0.038290 -0.044251
                                        CHANNELS 3 Zrotation Yrotation Xrotation
                                        End Site
                                        {
                                            OFFSET 0.151620 -0.085237 -0.077684
                                        }
                                    }
                                }
                            }
                        }
                    }
                }
            }
        }
    }
    JOINT LeftHip
    {
        OFFSET 0.685143 0.673822 -0.044491
        CHANNELS 3 Zrotation Yrotation Xrotation
        JOINT LeftKnee
        {
            OFFSET 0.085364 -3.750208 0.017676
            CHANNELS 3 Zrotation Yrotation Xrotation
            JOINT LeftAnkle
            {
                OFFSET 0.094583 -4.155206 0.019585
                CHANNELS 3 Zrotation Yrotation Xrotation
                JOINT LeftToe
                {
                    OFFSET -0.000000 -0.395925 0.621478
                    CHANNELS 3 Zrotation Yrotation Xrotation
                    End Site
                    {
                        OFFSET -0.000000 -0.077878 0.321152
                    }
                }
            }
        }
    }
    JOINT RightHip
    {
        OFFSET -0.685143 0.673822 -0.044492
        CHANNELS 3 Zrotation Yrotation Xrotation
        JOINT RightKnee
        {
            OFFSET -0.085364 -3.750208 0.017677
            CHANNELS 3 Zrotation Yrotation Xrotation
            JOINT RightAnkle
            {
                OFFSET -0.094583 -4.155206 0.019585
                CHANNELS 3 Zrotation Yrotation Xrotation
                JOINT RightToe
                {
                    OFFSET -0.000000 -0.395925 0.621478
                    CHANNELS 3 Zrotation Yrotation Xrotation
                    End Site
                    {
                        OFFSET -0.000000 -0.077878 0.321152
                    }
                }
            }
        }
    }
}
MOTION
Frames: 4
Frame Time: 0.033333
-0.021544 8.272582 -0.481818 180.000000 -0.000011 180.000000 -0.488501 0.234434 -3.492610 0.464156 -0.051108 -6.188855 -5.995624 10.451126 -4.095865 -1.089841 20.276520 -5.562912 -2.093440 -4.634333 -0.020247 -39.761429 4.946902 4.115937 178.438568 -41.265446 -179.419403 51.218338 19.453911 -28.091066 -0.000004 0.000005 0.000009 -14.684813 -11.151992 3.564821 -6.904075 25.687176 7.547003 -48.626514 6.587547 -1.284061 3.065758 0.145669 -0.024818 -10.297254 -0.515297 0.364439 -41.550755 -0.617791 2.658262 2.038931 0.089074 -0.097462 -1.123188 -0.048566 0.055524 -37.809654 -7.905584 8.126707 13.250463 0.600327 -0.014652 -7.481352 -0.531559 0.295448 -25.396896 -5.317520 9.690440 17.629185 5.941593 -0.268849 34.610867 5.776763 2.568225 2.993536 8.444796 -0.023986 84.545403 22.545300 27.002459 -177.330597 70.465645 -178.121796 -100.381767 -11.162355 14.982697 0.000003 0.000012 0.000005 0.000000 -0.000000 0.000005 0.000002 -0.000002 0.000009 -0.000015 0.000022 0.000003 -0.000002 0.000003 0.000000 -0.000003 -0.000000 0.000005 -0.000009 0.000019 0.000002 0.000003 -0.000002 -0.000003 -0.000005 -0.000000 0.000002 -0.000022 0.000020 0.000005 0.000000 -0.000002 -0.000002 -0.000003 0.000002 0.000003 -0.000002 0.000017 0.000005 0.000003 -0.000002 -0.000003 -0.000003 0.000002 0.000000 -1.216890 -18.503052 -12.270510 0.187947 0.674430 31.141121 10.211720 15.288470 -20.937737 0.000002 0.000001 -0.000003 1.177577 7.069542 -4.365107 -0.045496 -0.341494 15.179599 0.227625 -9.253469 -16.776094 -0.003109 -0.016006 -2.641099
-0.021558 8.272582 -0.481818 180.000000 -0.000011 180.000000 -0.360033 0.171591 -3.444242 0.250767 -0.033848 -6.345681 -3.720488 10.226352 -4.023915 -1.059065 19.748865 -5.363197 -2.453599 -4.962786 -0.020207 -38.405392 3.165392 8.618523 178.404083 -43.656120 -179.368073 51.079720 19.608686 -25.383110 -0.000008 -0.000002 0.000009 -13.422676 -10.214671 5.209381 -6.100081 24.807533 7.478827 -46.399479 6.530840 -1.369163 2.606251 0.124590 -0.020567 -10.513209 -0.525437 0.372796 -43.392887 -0.512163 2.654180 2.546309 0.111467 -0.122607 -1.240469 -0.052242 0.062225 -36.201733 -7.889428 7.521734 13.240018 0.599843 -0.014674 -8.070166 -0.572449 0.321379 -23.132597 -5.297398 8.836785 17.624407 5.607375 -0.327393 32.959320 5.545332 2.370178 3.591248 8.467003 -0.025649 82.406174 17.686686 20.397203 -177.350204 70.263824 -178.142639 -98.788147 -13.218184 15.660362 -0.000003 0.000018 -0.000002 -0.000003 -0.000002 0.000002 0.000002 0.000003 0.000000 -0.000009 0.000020 -0.000005 -0.000002 0.000004 0.000003 -0.000003 -0.000000 -0.000003 0.000009 0.000019 0.000000 0.000000 -0.000000 0.000000 -0.000002 0.000003 -0.000002 0.000002 0.000018 0.000005 0.000002 -0.000002 -0.000002 -0.000002 0.000003 0.000000 0.000002 0.000023 0.000007 0.000005 -0.000004 0.000000 -0.000002 0.000003 0.000002 -1.305917 -19.740280 -12.210224 0.187855 0.674278 31.133348 11.785246 16.556835 -20.087126 0.000002 0.000000 0.000004 1.481608 12.072240 -4.198174 -0.045460 -0.341362 15.173482 -6.037158 -11.572748 -15.478240 -0.059062 -0.305406 -2.685780
-0.021572 8.272582 -0.481818 180.000000 -0.000011 180.000000 -0.200587 0.082413 -3.399514 -0.056687 -0.011110 -6.490840 -0.632868 9.654158 -3.983727 -1.000197 18.729731 -5.304025 -3.314863 -5.699397 -0.020229 -39.561180 1.036190 13.521536 178.276169 -50.559124 -179.193192 50.175064 17.959238 -25.044577 -0.000000 0.000002 0.000015 -11.842525 -9.108212 7.364769 -5.070632 23.864838 7.432547 -43.754730 6.428812 -1.481768 1.873810 0.091079 -0.013464 -10.945652 -0.545643 0.389708 -46.204849 -0.394310 2.678502 3.005636 0.131944 -0.145214 -1.551127 -0.062150 0.079691 -34.337196 -7.867243 6.800055 13.060897 0.592345 -0.015838 -8.961910 -0.633860 0.361430 -20.436935 -5.313653 7.835653 17.617140 5.162172 -0.419518 30.760624 5.228289 2.116943 4.142177 8.431993 -0.029270 81.210083 13.308684 13.501340 -177.304062 70.732086 -178.093628 -94.338058 -16.733166 6.600783 -0.000003 -0.000000 -0.000007 0.000002 -0.000003 0.000007 -0.000005 0.000004 0.000000 0.000014 0.000003 0.000000 -0.000002 0.000003 -0.000002 -0.000002 0.000002 0.000002 0.000005 0.000004 0.000003 -0.000002 -0.000002 0.000003 -0.000002 -0.000002 0.000000 0.000000 0.000007 0.000002 -0.000002 0.000002 0.000007 0.000000 -0.000002 0.000000 0.000005 0.000009 0.000010 0.000003 -0.000003 0.000002 0.000002 -0.000003 -0.000003 -1.161312 -17.711683 -12.297108 0.187764 0.674125 31.125547 10.105445 15.267485 -21.245224 -0.000000 -0.000001 -0.000000 1.956758 19.233498 -3.904516 -0.045425 -0.341231 15.167537 -11.093258 -16.220360 -12.928867 -0.126987 -0.705069 -3.420736
-0.021586 8.272582 -0.481818 180.000000 -0.000011 180.000000 -0.031022 -0.014656 -3.359006 -0.395182 0.012183 -6.623110 2.677513 8.793564 -3.976368 -0.911611 17.172865 -5.304827 -4.927986 -6.648343 -0.018097 -44.504822 -1.666743 20.166407 177.903656 -62.034161 -178.746796 48.988384 15.072985 -24.799341 0.000013 -0.000005 0.000021 -10.002713 -7.922116 9.889174 -3.889194 22.849878 7.380868 -40.786499 6.304376 -1.617652 0.972986 0.049961 -0.004138 -11.505076 -0.571618 0.411826 -49.623966 -0.263194 2.712759 3.460889 0.152423 -0.167462 -1.971997 -0.078670 0.101055 -32.263756 -7.822665 5.989599 12.789670 0.580914 -0.017522 -10.043965 -0.707496 0.411324 -17.407700 -5.311163 6.715943 17.610025 4.645681 -0.547364 28.194757 4.845926 1.836933 4.633066 8.356627 -0.034271 79.868797 10.121447 7.999125 -177.176437 71.915665 -177.958862 -85.113434 -18.193308 1.094913 -0.000002 0.000010 -0.000002 0.000002 -0.000002 0.000005 0.000002 -0.000002 0.000000 -0.000009 0.000006 0.000005 0.000000 0.000003 0.000000 0.000007 -0.000003 0.000009 -0.000002 0.000009 0.000010 -0.000005 -0.000000 0.000002 0.000000 -0.000002 0.000002 -0.000012 0.000008 -0.000002 -0.000003 -0.000004 0.000000 -0.000003 -0.000001 0.000002 -0.000002 0.000009 0.000009 0.000002 -0.000003 0.000000 -0.000005 -0.000000 0.000002 -0.836426 -12.894611 -12.484564 0.187672 0.673972 31.117804 6.582349 11.928724 -23.255651 0.000001 0.000001 -0.000003 2.335068 24.347025 -3.644885 -0.045387 -0.341090 15.161178 -13.158391 -20.106127 -11.002902 -0.163886 -0.953635 -3.879199
